<svg xmlns="http://www.w3.org/2000/svg" xmlns:xlink="http://www.w3.org/1999/xlink" width="500" zoomAndPan="magnify" viewBox="0 0 375 374.999991" height="500" preserveAspectRatio="xMidYMid meet" version="1.0"><defs><g/><clipPath id="7827f88468"><path d="M 28.261719 61.386719 L 347 61.386719 L 347 313.386719 L 28.261719 313.386719 Z M 28.261719 61.386719 " clip-rule="nonzero"/></clipPath><clipPath id="d888f8afc3"><path d="M 134.476562 69.246094 C 150.75 64.5 169.367188 61.386719 187.585938 61.386719 C 205.800781 61.386719 223.332031 64.054688 239.488281 68.800781 C 239.832031 68.949219 240.175781 68.949219 240.519531 69.097656 C 301.191406 88.085938 345.875 138.222656 346.734375 194.976562 L 346.734375 300.859375 C 346.734375 304.238281 345.390625 307.484375 343 309.875 C 340.609375 312.265625 337.367188 313.609375 333.984375 313.609375 L 41.011719 313.609375 C 37.628906 313.609375 34.386719 312.265625 31.996094 309.875 C 29.605469 307.484375 28.261719 304.238281 28.261719 300.859375 L 28.261719 195.066406 C 29.121094 137.929688 73.117188 87.789062 134.476562 69.246094 Z M 134.476562 69.246094 " clip-rule="nonzero"/></clipPath><clipPath id="308b0bca4f"><path d="M 52.34375 192.09375 L 92.84375 192.09375 L 92.84375 232.59375 L 52.34375 232.59375 Z M 52.34375 192.09375 " clip-rule="nonzero"/></clipPath><clipPath id="aa4692ccae"><path d="M 281.84375 192.09375 L 322.34375 192.09375 L 322.34375 232.59375 L 281.84375 232.59375 Z M 281.84375 192.09375 " clip-rule="nonzero"/></clipPath><clipPath id="831e2a65e5"><path d="M 128 145.984375 L 247 145.984375 L 247 238.234375 L 128 238.234375 Z M 128 145.984375 " clip-rule="nonzero"/></clipPath><clipPath id="b9f3e8b5b8"><rect x="0" width="297" y="0" height="124"/></clipPath><clipPath id="a4d834af59"><rect x="0" width="261" y="0" height="42"/></clipPath></defs><g clip-path="url(#7827f88468)"><g clip-path="url(#d888f8afc3)"><path stroke-linecap="butt" transform="matrix(0.75, 0, 0, 0.75, 28.260731, 61.385149)" fill="none" stroke-linejoin="miter" d="M 141.621109 10.48126 C 163.319025 4.153135 188.141942 0.00209331 212.433609 0.00209331 C 236.720067 0.00209331 260.095067 3.559385 281.636734 9.88751 C 282.095067 10.085427 282.5534 10.085427 283.011734 10.283343 C 363.907567 35.601052 423.485692 102.45001 424.631526 178.121885 L 424.631526 319.298969 C 424.631526 323.804177 422.839859 328.132302 419.652359 331.319802 C 416.464859 334.507302 412.141942 336.298969 407.631526 336.298969 L 17.001317 336.298969 C 12.4909 336.298969 8.167983 334.507302 4.980483 331.319802 C 1.792983 328.132302 0.00131662 323.804177 0.00131662 319.298969 L 0.00131662 178.241677 C 1.14715 102.059385 59.808608 35.205218 141.621109 10.48126 Z M 141.621109 10.48126 " stroke="#d63401" stroke-width="14" stroke-opacity="1" stroke-miterlimit="4"/></g></g><g clip-path="url(#308b0bca4f)"><path fill="#ed9e04" d="M 93.148438 212.496094 L 82.621094 213.804688 L 92.457031 217.777344 L 81.953125 216.308594 L 90.414062 222.703125 L 80.652344 218.554688 L 87.171875 226.921875 L 78.808594 220.402344 L 82.953125 230.164062 L 76.558594 221.703125 L 78.023438 232.207031 L 74.054688 222.371094 L 72.746094 232.898438 L 71.441406 222.371094 L 67.46875 232.207031 L 68.9375 221.703125 L 62.539062 230.164062 L 66.6875 220.402344 L 58.320312 226.921875 L 64.84375 218.554688 L 55.078125 222.703125 L 63.542969 216.308594 L 53.035156 217.773438 L 62.871094 213.804688 L 52.34375 212.496094 L 62.871094 211.191406 L 53.035156 207.21875 L 63.542969 208.6875 L 55.078125 202.289062 L 64.84375 206.4375 L 58.320312 198.070312 L 66.6875 204.59375 L 62.539062 194.828125 L 68.9375 203.292969 L 67.46875 192.785156 L 71.441406 202.621094 L 72.746094 192.09375 L 74.054688 202.621094 L 78.027344 192.785156 L 76.558594 203.292969 L 82.953125 194.828125 L 78.808594 204.59375 L 87.171875 198.070312 L 80.652344 206.4375 L 90.414062 202.289062 L 81.953125 208.6875 L 92.457031 207.21875 L 82.621094 211.191406 Z M 93.148438 212.496094 " fill-opacity="1" fill-rule="nonzero"/></g><g clip-path="url(#aa4692ccae)"><path fill="#ed9e04" d="M 322.648438 212.496094 L 312.121094 213.804688 L 321.957031 217.777344 L 311.453125 216.308594 L 319.914062 222.703125 L 310.148438 218.554688 L 316.671875 226.921875 L 308.304688 220.402344 L 312.453125 230.164062 L 306.058594 221.703125 L 307.523438 232.207031 L 303.550781 222.371094 L 302.246094 232.898438 L 300.9375 222.371094 L 296.96875 232.207031 L 298.433594 221.703125 L 292.039062 230.164062 L 296.1875 220.402344 L 287.820312 226.921875 L 294.34375 218.554688 L 284.578125 222.703125 L 293.039062 216.308594 L 282.535156 217.773438 L 292.371094 213.804688 L 281.84375 212.496094 L 292.371094 211.191406 L 282.535156 207.21875 L 293.039062 208.6875 L 284.578125 202.289062 L 294.34375 206.4375 L 287.820312 198.070312 L 296.1875 204.59375 L 292.039062 194.828125 L 298.433594 203.292969 L 296.96875 192.785156 L 300.9375 202.621094 L 302.246094 192.09375 L 303.550781 202.621094 L 307.523438 192.785156 L 306.058594 203.292969 L 312.453125 194.828125 L 308.304688 204.59375 L 316.671875 198.070312 L 310.148438 206.4375 L 319.914062 202.289062 L 311.453125 208.6875 L 321.957031 207.21875 L 312.121094 211.191406 Z M 322.648438 212.496094 " fill-opacity="1" fill-rule="nonzero"/></g><g clip-path="url(#831e2a65e5)"><path fill="#d63401" d="M 238.109375 173.730469 C 237.648438 170.160156 237.535156 163.945312 240.871094 161.875 C 240.988281 161.875 240.988281 161.757812 240.988281 161.757812 C 243.75 160.835938 245.59375 159.6875 244.09375 158.074219 L 203.917969 145.984375 L 138.871094 155.082031 C 138.871094 155.082031 131.386719 156.117188 132.078125 167.746094 C 132.425781 174.078125 134.382812 177.183594 136.109375 178.679688 L 130.8125 180.292969 C 129.316406 181.90625 131.273438 183.171875 133.921875 183.976562 L 134.035156 184.09375 C 137.375 186.164062 137.261719 192.382812 136.800781 195.949219 C 124.828125 199.402344 129.085938 200.441406 129.085938 200.441406 L 131.734375 201.128906 C 129.890625 202.742188 128.050781 205.964844 128.394531 211.953125 C 129.085938 223.578125 135.1875 224.386719 135.1875 224.386719 L 177.785156 238.199219 L 242.136719 222.660156 C 242.136719 222.660156 246.398438 221.507812 234.425781 218.167969 C 233.964844 214.601562 233.847656 208.382812 237.1875 206.3125 C 237.304688 206.3125 237.304688 206.195312 237.304688 206.195312 C 240.066406 205.273438 241.90625 204.125 240.410156 202.511719 L 237.648438 201.707031 C 239.492188 200.554688 242.367188 197.675781 242.714844 189.964844 C 243.058594 184.667969 241.679688 181.675781 240.066406 179.832031 L 245.59375 178.449219 C 245.824219 178.222656 250.082031 177.183594 238.109375 173.730469 Z M 184.347656 173.617188 L 195.167969 171.429688 L 231.660156 163.945312 L 237.074219 162.792969 C 235.347656 166.019531 235.460938 170.390625 235.691406 173.15625 C 235.808594 173.847656 235.804688 174.421875 235.921875 174.765625 L 229.933594 176.265625 L 183.769531 187.777344 Z M 137.949219 184.898438 L 143.363281 186.050781 L 178.472656 193.300781 L 181.582031 193.878906 L 190.792969 195.71875 L 191.253906 209.765625 L 143.820312 198.023438 L 139.101562 196.871094 C 139.21875 196.410156 139.21875 195.835938 139.332031 195.257812 C 139.5625 192.382812 139.675781 188.007812 137.949219 184.898438 Z M 135.761719 167.054688 C 135.648438 163.945312 136.222656 161.757812 137.375 160.605469 C 138.066406 159.917969 138.871094 159.6875 139.445312 159.6875 C 139.792969 159.6875 140.023438 159.6875 140.023438 159.6875 L 168.113281 168.78125 L 182.160156 173.386719 L 181.699219 187.546875 L 142.441406 176.492188 L 140.367188 175.917969 C 140.253906 175.917969 140.136719 175.917969 140.136719 175.917969 C 139.90625 176.035156 135.992188 175.6875 135.761719 167.054688 Z M 178.015625 231.867188 L 136.683594 220.242188 C 136.570312 220.242188 136.453125 220.242188 136.453125 220.242188 C 136.339844 220.242188 132.425781 219.894531 132.195312 211.261719 C 132.078125 208.152344 132.65625 205.964844 133.804688 204.816406 C 134.496094 204.125 135.304688 203.894531 135.878906 203.894531 C 136.222656 203.894531 136.453125 203.894531 136.453125 203.894531 L 178.472656 217.59375 Z M 232.238281 217.363281 C 232.351562 218.054688 232.351562 218.628906 232.46875 218.976562 L 180.433594 231.984375 L 180.890625 217.9375 L 192.058594 215.636719 L 193.671875 215.980469 L 199.886719 214.023438 L 228.324219 208.152344 L 233.734375 207.003906 C 231.777344 210.109375 231.890625 214.484375 232.238281 217.363281 Z M 235.117188 198.136719 C 235 198.136719 234.886719 198.136719 234.886719 198.136719 L 230.972656 199.289062 L 193.554688 209.765625 L 193.09375 195.605469 L 205.414062 191.574219 L 235.117188 181.90625 C 235.117188 181.90625 236.726562 181.558594 237.878906 182.710938 C 239.03125 183.863281 239.492188 186.050781 239.492188 189.15625 C 239.144531 197.792969 235.230469 198.136719 235.117188 198.136719 Z M 235.117188 198.136719 " fill-opacity="1" fill-rule="nonzero"/></g><g transform="matrix(1, 0, 0, 1, 39, 74)"><g clip-path="url(#b9f3e8b5b8)"><g fill="#d63401" fill-opacity="1"><g transform="translate(34.007055, 116.880848)"><g><path d="M 4.328125 -26.3125 L 11.265625 -17.140625 L 6.328125 -9.625 L -14.6875 -14.09375 C -15.125 -14.1875 -15.492188 -14.253906 -15.796875 -14.296875 C -16.097656 -14.347656 -16.394531 -14.328125 -16.6875 -14.234375 C -16.976562 -14.140625 -17.257812 -13.960938 -17.53125 -13.703125 C -17.800781 -13.453125 -18.097656 -13.082031 -18.421875 -12.59375 L -24.6875 -16.703125 L -15.40625 -30.828125 L -9.140625 -26.71875 C -9.523438 -26.125 -9.65625 -25.601562 -9.53125 -25.15625 C -9.40625 -24.71875 -9.003906 -24.398438 -8.328125 -24.203125 L 1.5 -21.28125 L 1.59375 -21.4375 L -3.953125 -28.234375 L -5.203125 -28.53125 C -6.023438 -28.738281 -6.660156 -28.828125 -7.109375 -28.796875 C -7.554688 -28.773438 -7.957031 -28.5 -8.3125 -27.96875 L -14.578125 -32.078125 L -5.765625 -45.484375 L 0.5 -41.375 C -0.0625 -40.53125 -0.257812 -39.910156 -0.09375 -39.515625 C 0.0625 -39.117188 0.484375 -38.832031 1.171875 -38.65625 L 10.765625 -35.375 L 10.84375 -35.5 L 4.3125 -43.4375 C 3.394531 -44.539062 2.394531 -44.269531 1.3125 -42.625 L -4.953125 -46.734375 L 1.515625 -56.5625 L 7.78125 -52.453125 C 7.46875 -51.972656 7.242188 -51.550781 7.109375 -51.1875 C 6.972656 -50.820312 6.914062 -50.5 6.9375 -50.21875 C 6.96875 -49.945312 7.066406 -49.671875 7.234375 -49.390625 C 7.398438 -49.109375 7.609375 -48.785156 7.859375 -48.421875 L 20.53125 -31.234375 L 15.59375 -23.71875 Z M 4.328125 -26.3125 "/></g></g></g><g fill="#d63401" fill-opacity="1"><g transform="translate(62.790436, 77.005909)"><g><path d="M 0.640625 -0.53125 L -4.1875 -6.265625 C -3.28125 -7.035156 -2.734375 -7.707031 -2.546875 -8.28125 C -2.359375 -8.851562 -2.546875 -9.472656 -3.109375 -10.140625 L -9.71875 -17.984375 C -10.289062 -18.660156 -10.875 -18.957031 -11.46875 -18.875 C -12.0625 -18.789062 -12.8125 -18.363281 -13.71875 -17.59375 L -18.546875 -23.328125 L -4.359375 -35.28125 L 0.46875 -29.546875 C -0.4375 -28.785156 -0.984375 -28.117188 -1.171875 -27.546875 C -1.359375 -26.972656 -1.164062 -26.347656 -0.59375 -25.671875 L 6.015625 -17.828125 C 6.578125 -17.160156 7.15625 -16.867188 7.75 -16.953125 C 8.34375 -17.035156 9.09375 -17.457031 10 -18.21875 L 14.828125 -12.484375 Z M 0.640625 -0.53125 "/></g></g></g><g fill="#d63401" fill-opacity="1"><g transform="translate(78.830181, 62.336764)"><g><path d="M 20.359375 -42.96875 L 23.625 -36.21875 C 22.550781 -35.695312 21.929688 -35.179688 21.765625 -34.671875 C 21.609375 -34.160156 21.691406 -33.570312 22.015625 -32.90625 L 30.734375 -14.890625 L 19.796875 -9.59375 L 3.09375 -19.859375 L 6.140625 -13.5625 C 6.523438 -12.769531 7 -12.378906 7.5625 -12.390625 C 8.125 -12.398438 8.941406 -12.664062 10.015625 -13.1875 L 13.28125 -6.4375 L 0.75 -0.359375 L -2.515625 -7.109375 C -1.453125 -7.628906 -0.757812 -8.144531 -0.4375 -8.65625 C -0.125 -9.164062 -0.15625 -9.8125 -0.53125 -10.59375 L -5 -19.828125 C -5.394531 -20.617188 -5.890625 -21.046875 -6.484375 -21.109375 C -7.078125 -21.171875 -7.90625 -20.941406 -8.96875 -20.421875 L -12.234375 -27.171875 L 2.078125 -34.109375 L 18.078125 -24.265625 L 15.4375 -29.71875 C 15.039062 -30.507812 14.609375 -30.96875 14.140625 -31.09375 C 13.671875 -31.21875 12.90625 -31.019531 11.84375 -30.5 L 8.578125 -37.25 Z M 20.359375 -42.96875 "/></g></g></g><g fill="#d63401" fill-opacity="1"><g transform="translate(113.118288, 45.747684)"><g><path d="M 16.828125 -9.859375 C 17.554688 -9.953125 18.257812 -10.125 18.9375 -10.375 C 19.613281 -10.625 20.179688 -11.039062 20.640625 -11.625 C 21.109375 -12.207031 21.441406 -13 21.640625 -14 C 21.835938 -15.007812 21.828125 -16.320312 21.609375 -17.9375 C 21.398438 -19.53125 21.066406 -20.785156 20.609375 -21.703125 C 20.160156 -22.628906 19.644531 -23.316406 19.0625 -23.765625 C 18.488281 -24.222656 17.828125 -24.484375 17.078125 -24.546875 C 16.335938 -24.617188 15.585938 -24.609375 14.828125 -24.515625 L 12.9375 -24.25 L 14.9375 -9.59375 Z M 0.828125 -0.109375 L -0.171875 -7.546875 C 0.992188 -7.703125 1.804688 -7.972656 2.265625 -8.359375 C 2.734375 -8.742188 2.910156 -9.367188 2.796875 -10.234375 L 1.421875 -20.390625 C 1.304688 -21.273438 0.96875 -21.835938 0.40625 -22.078125 C -0.144531 -22.316406 -1.003906 -22.359375 -2.171875 -22.203125 L -3.171875 -29.640625 L 18.09375 -32.53125 C 20 -32.78125 21.878906 -32.773438 23.734375 -32.515625 C 25.597656 -32.253906 27.304688 -31.640625 28.859375 -30.671875 C 30.421875 -29.710938 31.75 -28.34375 32.84375 -26.5625 C 33.945312 -24.789062 34.6875 -22.519531 35.0625 -19.75 C 35.4375 -16.988281 35.332031 -14.609375 34.75 -12.609375 C 34.175781 -10.617188 33.25 -8.945312 31.96875 -7.59375 C 30.6875 -6.25 29.117188 -5.191406 27.265625 -4.421875 C 25.410156 -3.648438 23.398438 -3.117188 21.234375 -2.828125 Z M 0.828125 -0.109375 "/></g></g></g><g fill="#d63401" fill-opacity="1"><g transform="translate(151.805152, 40.54546)"><g><path d="M 25.125 -8.75 L 18.28125 -10.0625 L 17.578125 -6.359375 C 17.441406 -5.648438 17.539062 -5.101562 17.875 -4.71875 C 18.21875 -4.332031 18.890625 -4.046875 19.890625 -3.859375 L 18.484375 3.515625 L 0.8125 0.15625 L 2.21875 -7.21875 C 3.382812 -7 4.242188 -6.992188 4.796875 -7.203125 C 5.359375 -7.410156 5.722656 -7.945312 5.890625 -8.8125 L 7.796875 -18.875 C 7.960938 -19.75 7.828125 -20.390625 7.390625 -20.796875 C 6.953125 -21.210938 6.148438 -21.53125 4.984375 -21.75 L 6.375 -29.109375 L 24.046875 -25.75 L 22.65625 -18.390625 C 21.65625 -18.578125 20.925781 -18.550781 20.46875 -18.3125 C 20.007812 -18.082031 19.710938 -17.609375 19.578125 -16.890625 L 18.96875 -13.703125 L 25.8125 -12.390625 L 26.421875 -15.578125 C 26.554688 -16.296875 26.453125 -16.847656 26.109375 -17.234375 C 25.773438 -17.628906 25.113281 -17.921875 24.125 -18.109375 L 25.515625 -25.46875 L 43.171875 -22.109375 L 41.78125 -14.75 C 40.613281 -14.976562 39.75 -14.984375 39.1875 -14.765625 C 38.632812 -14.546875 38.273438 -14 38.109375 -13.125 L 36.203125 -3.0625 C 36.035156 -2.195312 36.171875 -1.5625 36.609375 -1.15625 C 37.046875 -0.757812 37.847656 -0.445312 39.015625 -0.21875 L 37.609375 7.15625 L 19.953125 3.796875 L 21.359375 -3.578125 C 22.347656 -3.390625 23.070312 -3.410156 23.53125 -3.640625 C 23.988281 -3.867188 24.285156 -4.335938 24.421875 -5.046875 Z M 25.125 -8.75 "/></g></g></g><g fill="#d63401" fill-opacity="1"><g transform="translate(190.756955, 48.197569)"><g><path d="M 8.125 -12.515625 C 9.382812 -14.785156 10.863281 -16.570312 12.5625 -17.875 C 14.257812 -19.175781 16.109375 -20.023438 18.109375 -20.421875 C 20.117188 -20.816406 22.226562 -20.78125 24.4375 -20.3125 C 26.644531 -19.84375 28.882812 -18.976562 31.15625 -17.71875 C 33.425781 -16.457031 35.34375 -15.015625 36.90625 -13.390625 C 38.46875 -11.773438 39.613281 -10.015625 40.34375 -8.109375 C 41.070312 -6.203125 41.332031 -4.179688 41.125 -2.046875 C 40.925781 0.0859375 40.195312 2.289062 38.9375 4.5625 C 37.675781 6.832031 36.191406 8.617188 34.484375 9.921875 C 32.785156 11.222656 30.929688 12.078125 28.921875 12.484375 C 26.910156 12.890625 24.800781 12.859375 22.59375 12.390625 C 20.394531 11.929688 18.160156 11.070312 15.890625 9.8125 C 13.617188 8.550781 11.695312 7.109375 10.125 5.484375 C 8.5625 3.859375 7.414062 2.085938 6.6875 0.171875 C 5.96875 -1.742188 5.710938 -3.769531 5.921875 -5.90625 C 6.128906 -8.039062 6.863281 -10.242188 8.125 -12.515625 Z M 20.015625 -5.921875 C 19.210938 -4.484375 18.597656 -3.253906 18.171875 -2.234375 C 17.753906 -1.222656 17.507812 -0.34375 17.4375 0.40625 C 17.375 1.15625 17.492188 1.785156 17.796875 2.296875 C 18.097656 2.804688 18.601562 3.257812 19.3125 3.65625 C 19.988281 4.03125 20.628906 4.210938 21.234375 4.203125 C 21.835938 4.191406 22.4375 3.957031 23.03125 3.5 C 23.625 3.050781 24.238281 2.375 24.875 1.46875 C 25.507812 0.570312 26.226562 -0.59375 27.03125 -2.03125 C 27.800781 -3.425781 28.40625 -4.640625 28.84375 -5.671875 C 29.28125 -6.710938 29.53125 -7.597656 29.59375 -8.328125 C 29.65625 -9.066406 29.53125 -9.695312 29.21875 -10.21875 C 28.914062 -10.75 28.425781 -11.203125 27.75 -11.578125 C 27.039062 -11.972656 26.382812 -12.15625 25.78125 -12.125 C 25.1875 -12.101562 24.59375 -11.875 24 -11.4375 C 23.414062 -11 22.796875 -10.316406 22.140625 -9.390625 C 21.492188 -8.472656 20.785156 -7.316406 20.015625 -5.921875 Z M 20.015625 -5.921875 "/></g></g></g><g fill="#d63401" fill-opacity="1"><g transform="translate(223.843983, 67.208719)"><g><path d="M 29.5 -1.796875 C 28.664062 -2.640625 27.953125 -3.132812 27.359375 -3.28125 C 26.773438 -3.425781 26.171875 -3.1875 25.546875 -2.5625 L 16.609375 6.21875 L 19.453125 9.09375 C 19.847656 9.5 20.210938 9.796875 20.546875 9.984375 C 20.890625 10.171875 21.257812 10.222656 21.65625 10.140625 C 22.050781 10.054688 22.5 9.828125 23 9.453125 C 23.507812 9.078125 24.132812 8.53125 24.875 7.8125 L 29.84375 12.859375 L 21.09375 21.453125 L 0.578125 0.59375 L 5.921875 -4.65625 C 6.753906 -3.8125 7.460938 -3.316406 8.046875 -3.171875 C 8.640625 -3.035156 9.25 -3.273438 9.875 -3.890625 L 17.1875 -11.078125 C 17.8125 -11.703125 18.054688 -12.304688 17.921875 -12.890625 C 17.796875 -13.472656 17.316406 -14.1875 16.484375 -15.03125 L 21.828125 -20.296875 L 34.84375 -7.0625 Z M 29.5 -1.796875 "/></g></g></g><g fill="#d63401" fill-opacity="1"><g transform="translate(246.229557, 90.249861)"><g><path d="M 16.234375 13.5 C 16.503906 13.976562 16.769531 14.351562 17.03125 14.625 C 17.300781 14.90625 17.609375 15.078125 17.953125 15.140625 C 18.296875 15.203125 18.6875 15.15625 19.125 15 C 19.5625 14.84375 20.09375 14.585938 20.71875 14.234375 L 24.203125 20.390625 L 14.59375 25.8125 L 0.40625 0.71875 L 6.9375 -2.96875 C 7.519531 -1.9375 8.070312 -1.273438 8.59375 -0.984375 C 9.125 -0.691406 9.769531 -0.757812 10.53125 -1.1875 L 19.453125 -6.234375 C 20.222656 -6.671875 20.617188 -7.191406 20.640625 -7.796875 C 20.671875 -8.398438 20.394531 -9.21875 19.8125 -10.25 L 26.34375 -13.9375 L 40.53125 11.15625 L 30.9375 16.578125 L 27.453125 10.421875 C 28.078125 10.066406 28.566406 9.742188 28.921875 9.453125 C 29.285156 9.160156 29.523438 8.851562 29.640625 8.53125 C 29.753906 8.207031 29.757812 7.859375 29.65625 7.484375 C 29.5625 7.117188 29.378906 6.695312 29.109375 6.21875 L 27.3125 3.03125 L 22.640625 5.671875 L 25.828125 11.296875 L 22.703125 13.0625 L 19.515625 7.4375 L 14.4375 10.3125 Z M 16.234375 13.5 "/></g></g></g></g></g><g transform="matrix(1, 0, 0, 1, 62, 241)"><g clip-path="url(#a4d834af59)"><g fill="#d63401" fill-opacity="1"><g transform="translate(1.097039, 31.931958)"><g><path d="M 17.625 -10.171875 L 12.3125 -10.171875 L 12.3125 -7.296875 C 12.3125 -6.742188 12.460938 -6.347656 12.765625 -6.109375 C 13.066406 -5.867188 13.609375 -5.75 14.390625 -5.75 L 14.390625 0 L 0.640625 0 L 0.640625 -5.75 C 1.546875 -5.75 2.191406 -5.867188 2.578125 -6.109375 C 2.972656 -6.347656 3.171875 -6.804688 3.171875 -7.484375 L 3.171875 -15.3125 C 3.171875 -15.988281 2.972656 -16.445312 2.578125 -16.6875 C 2.191406 -16.9375 1.546875 -17.0625 0.640625 -17.0625 L 0.640625 -22.796875 L 14.390625 -22.796875 L 14.390625 -17.0625 C 13.609375 -17.0625 13.066406 -16.9375 12.765625 -16.6875 C 12.460938 -16.445312 12.3125 -16.050781 12.3125 -15.5 L 12.3125 -13 L 17.625 -13 L 17.625 -15.5 C 17.625 -16.050781 17.46875 -16.445312 17.15625 -16.6875 C 16.851562 -16.9375 16.316406 -17.0625 15.546875 -17.0625 L 15.546875 -22.796875 L 29.28125 -22.796875 L 29.28125 -17.0625 C 28.375 -17.0625 27.726562 -16.9375 27.34375 -16.6875 C 26.957031 -16.445312 26.765625 -15.988281 26.765625 -15.3125 L 26.765625 -7.484375 C 26.765625 -6.804688 26.957031 -6.347656 27.34375 -6.109375 C 27.726562 -5.867188 28.375 -5.75 29.28125 -5.75 L 29.28125 0 L 15.546875 0 L 15.546875 -5.75 C 16.316406 -5.75 16.851562 -5.867188 17.15625 -6.109375 C 17.46875 -6.347656 17.625 -6.742188 17.625 -7.296875 Z M 17.625 -10.171875 "/></g></g></g><g fill="#d63401" fill-opacity="1"><g transform="translate(34.528604, 31.931958)"><g><path d="M 0.796875 -11.375 C 0.796875 -13.363281 1.117188 -15.109375 1.765625 -16.609375 C 2.421875 -18.117188 3.347656 -19.378906 4.546875 -20.390625 C 5.742188 -21.398438 7.164062 -22.15625 8.8125 -22.65625 C 10.457031 -23.164062 12.273438 -23.421875 14.265625 -23.421875 C 16.253906 -23.421875 18.070312 -23.164062 19.71875 -22.65625 C 21.375 -22.15625 22.796875 -21.398438 23.984375 -20.390625 C 25.179688 -19.378906 26.101562 -18.117188 26.75 -16.609375 C 27.40625 -15.109375 27.734375 -13.363281 27.734375 -11.375 C 27.734375 -9.394531 27.40625 -7.65625 26.75 -6.15625 C 26.101562 -4.65625 25.179688 -3.394531 23.984375 -2.375 C 22.796875 -1.351562 21.375 -0.585938 19.71875 -0.078125 C 18.070312 0.421875 16.253906 0.671875 14.265625 0.671875 C 12.273438 0.671875 10.457031 0.421875 8.8125 -0.078125 C 7.164062 -0.585938 5.742188 -1.351562 4.546875 -2.375 C 3.347656 -3.394531 2.421875 -4.65625 1.765625 -6.15625 C 1.117188 -7.65625 0.796875 -9.394531 0.796875 -11.375 Z M 11.1875 -11.375 C 11.1875 -10.125 11.234375 -9.078125 11.328125 -8.234375 C 11.421875 -7.398438 11.582031 -6.722656 11.8125 -6.203125 C 12.050781 -5.679688 12.363281 -5.300781 12.75 -5.0625 C 13.144531 -4.832031 13.648438 -4.71875 14.265625 -4.71875 C 14.859375 -4.71875 15.351562 -4.832031 15.75 -5.0625 C 16.15625 -5.300781 16.472656 -5.679688 16.703125 -6.203125 C 16.941406 -6.722656 17.109375 -7.398438 17.203125 -8.234375 C 17.296875 -9.078125 17.34375 -10.125 17.34375 -11.375 C 17.34375 -12.601562 17.296875 -13.644531 17.203125 -14.5 C 17.109375 -15.363281 16.941406 -16.050781 16.703125 -16.5625 C 16.472656 -17.082031 16.15625 -17.457031 15.75 -17.6875 C 15.351562 -17.914062 14.859375 -18.03125 14.265625 -18.03125 C 13.648438 -18.03125 13.144531 -17.914062 12.75 -17.6875 C 12.363281 -17.457031 12.050781 -17.082031 11.8125 -16.5625 C 11.582031 -16.050781 11.421875 -15.363281 11.328125 -14.5 C 11.234375 -13.644531 11.1875 -12.601562 11.1875 -11.375 Z M 11.1875 -11.375 "/></g></g></g><g fill="#d63401" fill-opacity="1"><g transform="translate(66.567442, 31.931958)"><g><path d="M 25.296875 -22.796875 L 25.296875 -13.734375 L 20.203125 -13.734375 C 20.203125 -14.421875 20.179688 -15.019531 20.140625 -15.53125 C 20.109375 -16.039062 20.03125 -16.453125 19.90625 -16.765625 C 19.78125 -17.085938 19.59375 -17.320312 19.34375 -17.46875 C 19.09375 -17.613281 18.753906 -17.6875 18.328125 -17.6875 L 17.375 -17.6875 L 17.375 -7.484375 C 17.375 -6.804688 17.566406 -6.347656 17.953125 -6.109375 C 18.347656 -5.867188 19 -5.75 19.90625 -5.75 L 19.90625 0 L 5.71875 0 L 5.71875 -5.75 C 6.625 -5.75 7.269531 -5.867188 7.65625 -6.109375 C 8.039062 -6.347656 8.234375 -6.804688 8.234375 -7.484375 L 8.234375 -17.6875 L 7.296875 -17.6875 C 6.867188 -17.6875 6.523438 -17.613281 6.265625 -17.46875 C 6.015625 -17.320312 5.828125 -17.085938 5.703125 -16.765625 C 5.578125 -16.453125 5.5 -16.039062 5.46875 -15.53125 C 5.4375 -15.019531 5.421875 -14.421875 5.421875 -13.734375 L 0.3125 -13.734375 L 0.3125 -22.796875 Z M 25.296875 -22.796875 "/></g></g></g><g fill="#5e17eb" fill-opacity="1"><g transform="translate(95.716565, 31.931958)"><g><path d="M 13.765625 -5.75 C 14.328125 -5.75 14.878906 -5.804688 15.421875 -5.921875 C 15.960938 -6.046875 16.4375 -6.304688 16.84375 -6.703125 C 17.257812 -7.097656 17.59375 -7.660156 17.84375 -8.390625 C 18.101562 -9.128906 18.234375 -10.125 18.234375 -11.375 C 18.234375 -12.601562 18.109375 -13.59375 17.859375 -14.34375 C 17.617188 -15.09375 17.296875 -15.664062 16.890625 -16.0625 C 16.492188 -16.46875 16.019531 -16.734375 15.46875 -16.859375 C 14.914062 -16.992188 14.347656 -17.0625 13.765625 -17.0625 L 12.3125 -17.0625 L 12.3125 -5.75 Z M 0.640625 0 L 0.640625 -5.75 C 1.546875 -5.75 2.191406 -5.867188 2.578125 -6.109375 C 2.972656 -6.347656 3.171875 -6.804688 3.171875 -7.484375 L 3.171875 -15.3125 C 3.171875 -15.988281 2.972656 -16.445312 2.578125 -16.6875 C 2.191406 -16.9375 1.546875 -17.0625 0.640625 -17.0625 L 0.640625 -22.796875 L 17.0625 -22.796875 C 18.53125 -22.796875 19.957031 -22.597656 21.34375 -22.203125 C 22.726562 -21.816406 23.957031 -21.179688 25.03125 -20.296875 C 26.113281 -19.410156 26.984375 -18.234375 27.640625 -16.765625 C 28.296875 -15.304688 28.625 -13.507812 28.625 -11.375 C 28.625 -9.238281 28.300781 -7.441406 27.65625 -5.984375 C 27.007812 -4.535156 26.128906 -3.363281 25.015625 -2.46875 C 23.910156 -1.582031 22.613281 -0.941406 21.125 -0.546875 C 19.644531 -0.160156 18.066406 0.03125 16.390625 0.03125 Z M 0.640625 0 "/></g></g></g><g fill="#5e17eb" fill-opacity="1"><g transform="translate(128.652938, 31.931958)"><g><path d="M 0.796875 -11.375 C 0.796875 -13.363281 1.117188 -15.109375 1.765625 -16.609375 C 2.421875 -18.117188 3.347656 -19.378906 4.546875 -20.390625 C 5.742188 -21.398438 7.164062 -22.15625 8.8125 -22.65625 C 10.457031 -23.164062 12.273438 -23.421875 14.265625 -23.421875 C 16.253906 -23.421875 18.070312 -23.164062 19.71875 -22.65625 C 21.375 -22.15625 22.796875 -21.398438 23.984375 -20.390625 C 25.179688 -19.378906 26.101562 -18.117188 26.75 -16.609375 C 27.40625 -15.109375 27.734375 -13.363281 27.734375 -11.375 C 27.734375 -9.394531 27.40625 -7.65625 26.75 -6.15625 C 26.101562 -4.65625 25.179688 -3.394531 23.984375 -2.375 C 22.796875 -1.351562 21.375 -0.585938 19.71875 -0.078125 C 18.070312 0.421875 16.253906 0.671875 14.265625 0.671875 C 12.273438 0.671875 10.457031 0.421875 8.8125 -0.078125 C 7.164062 -0.585938 5.742188 -1.351562 4.546875 -2.375 C 3.347656 -3.394531 2.421875 -4.65625 1.765625 -6.15625 C 1.117188 -7.65625 0.796875 -9.394531 0.796875 -11.375 Z M 11.1875 -11.375 C 11.1875 -10.125 11.234375 -9.078125 11.328125 -8.234375 C 11.421875 -7.398438 11.582031 -6.722656 11.8125 -6.203125 C 12.050781 -5.679688 12.363281 -5.300781 12.75 -5.0625 C 13.144531 -4.832031 13.648438 -4.71875 14.265625 -4.71875 C 14.859375 -4.71875 15.351562 -4.832031 15.75 -5.0625 C 16.15625 -5.300781 16.472656 -5.679688 16.703125 -6.203125 C 16.941406 -6.722656 17.109375 -7.398438 17.203125 -8.234375 C 17.296875 -9.078125 17.34375 -10.125 17.34375 -11.375 C 17.34375 -12.601562 17.296875 -13.644531 17.203125 -14.5 C 17.109375 -15.363281 16.941406 -16.050781 16.703125 -16.5625 C 16.472656 -17.082031 16.15625 -17.457031 15.75 -17.6875 C 15.351562 -17.914062 14.859375 -18.03125 14.265625 -18.03125 C 13.648438 -18.03125 13.144531 -17.914062 12.75 -17.6875 C 12.363281 -17.457031 12.050781 -17.082031 11.8125 -16.5625 C 11.582031 -16.050781 11.421875 -15.363281 11.328125 -14.5 C 11.234375 -13.644531 11.1875 -12.601562 11.1875 -11.375 Z M 11.1875 -11.375 "/></g></g></g><g fill="#5e17eb" fill-opacity="1"><g transform="translate(160.691776, 31.931958)"><g><path d="M 12.375 -23.421875 C 13.0625 -23.421875 13.707031 -23.363281 14.3125 -23.25 C 14.914062 -23.132812 15.460938 -22.984375 15.953125 -22.796875 C 16.453125 -22.617188 16.878906 -22.429688 17.234375 -22.234375 C 17.597656 -22.035156 17.894531 -21.851562 18.125 -21.6875 L 18.125 -22.796875 L 23.234375 -22.796875 L 23.234375 -14.359375 L 17.8125 -14.359375 C 17.8125 -15.054688 17.726562 -15.632812 17.5625 -16.09375 C 17.394531 -16.5625 17.164062 -16.9375 16.875 -17.21875 C 16.59375 -17.507812 16.257812 -17.71875 15.875 -17.84375 C 15.5 -17.96875 15.085938 -18.03125 14.640625 -18.03125 C 14.035156 -18.03125 13.515625 -17.914062 13.078125 -17.6875 C 12.648438 -17.457031 12.296875 -17.082031 12.015625 -16.5625 C 11.742188 -16.050781 11.535156 -15.363281 11.390625 -14.5 C 11.253906 -13.644531 11.1875 -12.601562 11.1875 -11.375 C 11.1875 -10.125 11.257812 -9.078125 11.40625 -8.234375 C 11.5625 -7.398438 11.789062 -6.722656 12.09375 -6.203125 C 12.394531 -5.679688 12.785156 -5.300781 13.265625 -5.0625 C 13.742188 -4.832031 14.3125 -4.71875 14.96875 -4.71875 C 15.414062 -4.71875 15.84375 -4.800781 16.25 -4.96875 C 16.664062 -5.144531 17.03125 -5.40625 17.34375 -5.75 C 17.65625 -6.101562 17.898438 -6.539062 18.078125 -7.0625 C 18.265625 -7.59375 18.359375 -8.234375 18.359375 -8.984375 L 23.75 -8.984375 C 23.75 -7.671875 23.539062 -6.429688 23.125 -5.265625 C 22.71875 -4.097656 22.070312 -3.070312 21.1875 -2.1875 C 20.3125 -1.3125 19.195312 -0.613281 17.84375 -0.09375 C 16.5 0.414062 14.894531 0.671875 13.03125 0.671875 C 11.363281 0.671875 9.78125 0.441406 8.28125 -0.015625 C 6.789062 -0.472656 5.488281 -1.1875 4.375 -2.15625 C 3.269531 -3.125 2.394531 -4.367188 1.75 -5.890625 C 1.113281 -7.410156 0.796875 -9.238281 0.796875 -11.375 C 0.796875 -13.507812 1.117188 -15.335938 1.765625 -16.859375 C 2.421875 -18.390625 3.285156 -19.640625 4.359375 -20.609375 C 5.441406 -21.578125 6.675781 -22.285156 8.0625 -22.734375 C 9.445312 -23.191406 10.882812 -23.421875 12.375 -23.421875 Z M 12.375 -23.421875 "/></g></g></g><g fill="#5e17eb" fill-opacity="1"><g transform="translate(189.217836, 31.931958)"><g><path d="M 1.265625 -3.265625 C 1.265625 -3.796875 1.367188 -4.300781 1.578125 -4.78125 C 1.796875 -5.269531 2.078125 -5.6875 2.421875 -6.03125 C 2.765625 -6.382812 3.175781 -6.664062 3.65625 -6.875 C 4.132812 -7.09375 4.648438 -7.203125 5.203125 -7.203125 C 5.722656 -7.203125 6.226562 -7.09375 6.71875 -6.875 C 7.207031 -6.664062 7.625 -6.382812 7.96875 -6.03125 C 8.320312 -5.6875 8.601562 -5.269531 8.8125 -4.78125 C 9.03125 -4.300781 9.140625 -3.796875 9.140625 -3.265625 C 9.140625 -2.722656 9.03125 -2.210938 8.8125 -1.734375 C 8.601562 -1.253906 8.320312 -0.835938 7.96875 -0.484375 C 7.625 -0.140625 7.207031 0.132812 6.71875 0.34375 C 6.226562 0.5625 5.722656 0.671875 5.203125 0.671875 C 4.648438 0.671875 4.132812 0.5625 3.65625 0.34375 C 3.175781 0.132812 2.765625 -0.140625 2.421875 -0.484375 C 2.078125 -0.835938 1.796875 -1.253906 1.578125 -1.734375 C 1.367188 -2.210938 1.265625 -2.722656 1.265625 -3.265625 Z M 1.265625 -3.265625 "/></g></g></g><g fill="#5e17eb" fill-opacity="1"><g transform="translate(203.135747, 31.931958)"><g><path d="M 3.078125 -7.453125 C 3.097656 -7.023438 3.175781 -6.609375 3.3125 -6.203125 C 3.445312 -5.804688 3.65625 -5.453125 3.9375 -5.140625 C 4.226562 -4.835938 4.613281 -4.597656 5.09375 -4.421875 C 5.570312 -4.242188 6.164062 -4.15625 6.875 -4.15625 C 7.695312 -4.15625 8.378906 -4.265625 8.921875 -4.484375 C 9.460938 -4.703125 9.890625 -4.992188 10.203125 -5.359375 C 10.523438 -5.734375 10.75 -6.160156 10.875 -6.640625 C 11 -7.117188 11.0625 -7.609375 11.0625 -8.109375 L 11.0625 -15.5 C 11.0625 -16.050781 10.878906 -16.445312 10.515625 -16.6875 C 10.160156 -16.9375 9.4375 -17.0625 8.34375 -17.0625 L 8.34375 -22.796875 L 22.71875 -22.796875 L 22.71875 -17.0625 C 21.8125 -17.0625 21.164062 -16.9375 20.78125 -16.6875 C 20.394531 -16.445312 20.203125 -15.988281 20.203125 -15.3125 L 20.203125 -8.140625 C 20.203125 -7.253906 20.0625 -6.296875 19.78125 -5.265625 C 19.5 -4.234375 18.988281 -3.28125 18.25 -2.40625 C 17.519531 -1.539062 16.507812 -0.816406 15.21875 -0.234375 C 13.925781 0.347656 12.269531 0.640625 10.25 0.640625 C 8.34375 0.640625 6.78125 0.378906 5.5625 -0.140625 C 4.351562 -0.671875 3.410156 -1.320312 2.734375 -2.09375 C 2.054688 -2.875 1.585938 -3.691406 1.328125 -4.546875 C 1.066406 -5.410156 0.9375 -6.15625 0.9375 -6.78125 C 0.9375 -7.6875 1.070312 -8.488281 1.34375 -9.1875 C 1.613281 -9.894531 1.957031 -10.476562 2.375 -10.9375 C 2.800781 -11.40625 3.289062 -11.753906 3.84375 -11.984375 C 4.40625 -12.222656 4.992188 -12.34375 5.609375 -12.34375 C 6.328125 -12.34375 6.9375 -12.234375 7.4375 -12.015625 C 7.945312 -11.804688 8.363281 -11.523438 8.6875 -11.171875 C 9.019531 -10.828125 9.257812 -10.429688 9.40625 -9.984375 C 9.5625 -9.535156 9.640625 -9.082031 9.640625 -8.625 C 9.640625 -8.113281 9.554688 -7.644531 9.390625 -7.21875 C 9.222656 -6.800781 8.992188 -6.441406 8.703125 -6.140625 C 8.421875 -5.835938 8.078125 -5.59375 7.671875 -5.40625 C 7.273438 -5.226562 6.851562 -5.140625 6.40625 -5.140625 C 5.875 -5.140625 5.421875 -5.207031 5.046875 -5.34375 C 4.679688 -5.476562 4.375 -5.65625 4.125 -5.875 C 3.875 -6.09375 3.660156 -6.34375 3.484375 -6.625 C 3.316406 -6.90625 3.179688 -7.179688 3.078125 -7.453125 Z M 3.078125 -7.453125 "/></g></g></g><g fill="#5e17eb" fill-opacity="1"><g transform="translate(230.006024, 31.931958)"><g><path d="M 12.3125 -8.40625 L 12.3125 -7.484375 C 12.3125 -6.929688 12.445312 -6.503906 12.71875 -6.203125 C 12.988281 -5.898438 13.484375 -5.75 14.203125 -5.75 L 15.796875 -5.75 L 15.796875 0 L 0.640625 0 L 0.640625 -5.75 C 1.546875 -5.75 2.191406 -5.867188 2.578125 -6.109375 C 2.972656 -6.347656 3.171875 -6.804688 3.171875 -7.484375 L 3.171875 -15.3125 C 3.171875 -15.988281 2.972656 -16.445312 2.578125 -16.6875 C 2.191406 -16.9375 1.546875 -17.0625 0.640625 -17.0625 L 0.640625 -22.796875 L 17.34375 -22.796875 C 18.863281 -22.796875 20.140625 -22.613281 21.171875 -22.25 C 22.203125 -21.894531 23.03125 -21.394531 23.65625 -20.75 C 24.28125 -20.101562 24.722656 -19.320312 24.984375 -18.40625 C 25.253906 -17.488281 25.390625 -16.476562 25.390625 -15.375 C 25.390625 -14.257812 25.253906 -13.269531 24.984375 -12.40625 C 24.722656 -11.550781 24.28125 -10.820312 23.65625 -10.21875 C 23.03125 -9.613281 22.203125 -9.160156 21.171875 -8.859375 C 20.140625 -8.554688 18.863281 -8.40625 17.34375 -8.40625 Z M 12.3125 -12.078125 L 13.984375 -12.078125 C 14.847656 -12.078125 15.441406 -12.300781 15.765625 -12.75 C 16.097656 -13.207031 16.265625 -13.804688 16.265625 -14.546875 C 16.265625 -15.253906 16.097656 -15.847656 15.765625 -16.328125 C 15.441406 -16.816406 14.847656 -17.0625 13.984375 -17.0625 L 12.3125 -17.0625 Z M 12.3125 -12.078125 "/></g></g></g></g></g></svg>